/* XPM */
static const char * delete_xpm[] = {
"28 28 3 1",
" 	c None",
".	c #FE0000",
"+	c #FF0000",
"                            ",
"                            ",
"                            ",
"                            ",
"                            ",
"                            ",
"     .+++++.    .+++++.     ",
"      .+++++    +++++.      ",
"       .++++.  .++++.       ",
"        +++++..+++++        ",
"        .++++++++++.        ",
"         .++++++++.         ",
"          .++++++.          ",
"           ++++++           ",
"          .++++++.          ",
"          .++++++.          ",
"         .++++++++.         ",
"        .++++++++++.        ",
"        +++++..+++++        ",
"       .++++.  .++++.       ",
"      .+++++    .++++.      ",
"     .+++++.    .+++++.     ",
"                            ",
"                            ",
"                            ",
"                            ",
"                            ",
"                            "};
