/* XPM */
static const char * delete_all_xpm[] = {
"28 28 6 1",
" 	c None",
".	c #FE0000",
"+	c #FF0000",
"@	c #FD0000",
"#	c #FC0000",
"$	c #FA0000",
"                            ",
"                            ",
"           .+++++.    .+++++",
"            .+++++@  @+++++.",
"             .++++.  .++++. ",
"             #+++++..+++++# ",
"              .++++++++++.  ",
"               .++++++++.   ",
"+++++.    .++++..++++++.    ",
".+++++@  @+++++.$++++++     ",
" .++++.  .++++. .++++++.    ",
" #+++++..+++++# .++++++.    ",
"  .++++++++++. .++++++++.   ",
"   .++++++++. .++++++++++.  ",
"    .++++++. @+++++..+++++@ ",
"    #++++++  .++++.  .++++. ",
"    .++++++#.+++++#   .++++.",
"    .++++++.+++++.    .+++++",
"   .++++++++.               ",
"  .++++++++++.              ",
" @+++++..+++++@             ",
" .++++.  .++++.             ",
".+++++#   .++++.            ",
"+++++.    .+++++.           ",
"                            ",
"                            ",
"                            ",
"                            "};
