/* XPM */
static const char * new_xpm[] = {
"28 28 2 1",
" 	c None",
".	c #FFFF4B",
"                            ",
"                            ",
"                            ",
"                            ",
"             ..             ",
"            ...             ",
"      ..    ...    ..       ",
"      ...   ...   ...       ",
"      ..............        ",
"       .............        ",
"        ...........         ",
"        ...........         ",
"     .................      ",
"    ....................    ",
"    ...................     ",
"      ...............       ",
"        ...........         ",
"        ...........         ",
"       .............        ",
"      ...............       ",
"      ...   ...   ...       ",
"      ..    ...    ..       ",
"            ...             ",
"            ..              ",
"                            ",
"                            ",
"                            ",
"                            "};
