/* XPM */
static const char * open_xpm[] = {
"24 24 107 2",
"  	c None",
". 	c #A9A9A9",
"+ 	c #BABABA",
"@ 	c #BDBDBD",
"# 	c #B1B1B1",
"$ 	c #AAAAAA",
"% 	c #AEAEAE",
"& 	c #E4E4E4",
"* 	c #F8F8F8",
"= 	c #F7F7F7",
"- 	c #F6F6F6",
"; 	c #CCCCCC",
"> 	c #B5B5B5",
", 	c #E8E8E8",
"' 	c #F5F5F5",
") 	c #E5E5E5",
"! 	c #E3E3E3",
"~ 	c #F1F1F1",
"{ 	c #CECECE",
"] 	c #D5D5D5",
"^ 	c #D9D9D9",
"/ 	c #B2B2B2",
"( 	c #C9C9C9",
"_ 	c #C7C7C7",
": 	c #C6C6C6",
"< 	c #D0D0D0",
"[ 	c #B9B9B9",
"} 	c #C1C1C1",
"| 	c #ADADAD",
"1 	c #FBFBFB",
"2 	c #FAFAFA",
"3 	c #F9F9F9",
"4 	c #F0F0F0",
"5 	c #DADADA",
"6 	c #B4AFA8",
"7 	c #F4F4F4",
"8 	c #E0E0E0",
"9 	c #E1E1E1",
"0 	c #EBEBEB",
"a 	c #F8B85C",
"b 	c #F5BA60",
"c 	c #C1B29A",
"d 	c #E9E9E9",
"e 	c #C8C8C8",
"f 	c #ECECEC",
"g 	c #F9B55A",
"h 	c #FAC060",
"i 	c #F7C667",
"j 	c #C2B59C",
"k 	c #FCFCFC",
"l 	c #B9B2A7",
"m 	c #FAC161",
"n 	c #EFEFEF",
"o 	c #D7D7D7",
"p 	c #D8D8D8",
"q 	c #C2B49E",
"r 	c #F5B960",
"s 	c #F4B158",
"t 	c #F9B559",
"u 	c #C1B59C",
"v 	c #E7E7E7",
"w 	c #CFCFCF",
"x 	c #CDCDCD",
"y 	c #C2B69F",
"z 	c #F6C064",
"A 	c #F7B459",
"B 	c #C1B49B",
"C 	c #FBEEDB",
"D 	c #FADCB2",
"E 	c #FAD8A9",
"F 	c #FAD8A8",
"G 	c #F0CE9F",
"H 	c #DAB274",
"I 	c #F5B754",
"J 	c #F6AF4C",
"K 	c #F9C161",
"L 	c #F6C566",
"M 	c #E7DAC7",
"N 	c #F8BF6E",
"O 	c #F7AB3F",
"P 	c #F8AB3F",
"Q 	c #F7AA3F",
"R 	c #F6AA3F",
"S 	c #F9B459",
"T 	c #F9C060",
"U 	c #E6BF87",
"V 	c #C7B18B",
"W 	c #EBAC54",
"X 	c #F6AA3E",
"Y 	c #DEB26C",
"Z 	c #F6A93E",
"` 	c #FAC662",
" .	c #F2B14F",
"..	c #F7AA3E",
"+.	c #FABE58",
"@.	c #F8AC40",
"#.	c #FAC160",
"$.	c #F9B64D",
"%.	c #F7AB3E",
"&.	c #F9BB59",
"*.	c #F8AE42",
"=.	c #F8B34D",
"-.	c #F9B255",
";.	c #F8AD44",
">.	c #F8AA3E",
",.	c #F8AE49",
"'.	c #F6AA3D",
"                                                ",
"      . + @ @ @ @ @ @ @ @ # $                   ",
"      % & * * * * * * = - ; @ >                 ",
"      % , ' ) & & & & ! ~ { ] ^ /               ",
"      % , , ( _ _ _ : _ & < [ } # .             ",
"      | , 1 2 2 2 3 2 2 1 4 , , 5 #             ",
"      6 , 7 8 8 8 8 9 9 9 9 9 4 0 #             ",
"  a b c , d e : _ _ _ _ _ _ _ & f #             ",
"g h i j d 1 3 2 2 2 2 1 1 2 2 k f l             ",
"g m i j , n o p p p p p p p p f 0 q r s         ",
"t m i u v f w x x { { x x { { v 0 y z A         ",
"g m i B , C D E E E E E E E E F G H I J         ",
"g K L u M N O P P O O P P O O O Q R Q O O O P   ",
"S T i j U O P P O O P P O O O Q R Q O O O P P   ",
"A K i V W P P O O P P O O O Q R Q O O O P P X   ",
"A m i Y O P O O P P O O O Q R Q O O O P P O Z   ",
"S m `  .P O O P P O O O Q R Q O O O P P O ..    ",
"A m +.@.O O P P O O O Q R Q O O O P P O O ..    ",
"S #.$.O O P P O O O Q R Q O O O P P O O %.      ",
"S &.*.O P P O O O Q R Q O O O P P O O P ..      ",
"S =.O P P O O O Q R Q O O O P P O O P P         ",
"-.;.P P O O O Q R Q O O O P P O O P P >.        ",
",.%.%.%.%.%.X X %.%.%.%.%.%.%.%.%.%.%.'.        ",
"                                                "};
