/* XPM */
static const char * run_xpm[] = {
"24 24 141 2",
"  	c None",
". 	c #FFFFFF",
"+ 	c #FCFBFB",
"@ 	c #FAF6F6",
"# 	c #FFFDFD",
"$ 	c #FCFAFA",
"% 	c #E7D5D3",
"& 	c #D3ACA8",
"* 	c #C88D87",
"= 	c #C57E76",
"- 	c #C77E77",
"; 	c #CE8D87",
"> 	c #DBACA7",
", 	c #EAD3D1",
"' 	c #FBF8F8",
") 	c #E6D4D2",
"! 	c #C8918B",
"~ 	c #BA5D54",
"{ 	c #C15348",
"] 	c #CA564A",
"^ 	c #CC574B",
"/ 	c #CD574B",
"( 	c #CB574B",
"_ 	c #CB6258",
": 	c #DB948D",
"< 	c #EED3D0",
"[ 	c #D7BAB7",
"} 	c #BC6C64",
"| 	c #C05247",
"1 	c #CE584C",
"2 	c #D37167",
"3 	c #EABBB7",
"4 	c #D8BBB8",
"5 	c #B96259",
"6 	c #C85549",
"7 	c #D1665B",
"8 	c #EBBCB7",
"9 	c #FDFDFD",
"0 	c #E8D8D7",
"a 	c #BC6F67",
"b 	c #D57167",
"c 	c #F2D4D1",
"d 	c #FDFCFC",
"e 	c #C89691",
"f 	c #BE5146",
"g 	c #D46E64",
"h 	c #DC8981",
"i 	c #D36B61",
"j 	c #E09790",
"k 	c #FCF9F8",
"l 	c #EBDDDB",
"m 	c #CE594D",
"n 	c #E8B1AC",
"o 	c #FEFCFB",
"p 	c #F1D3D0",
"q 	c #DE928A",
"r 	c #CE5A4F",
"s 	c #D1655A",
"t 	c #F3D8D5",
"u 	c #D7B6B2",
"v 	c #BD5247",
"w 	c #ECC0BB",
"x 	c #FBF4F4",
"y 	c #E9B6B1",
"z 	c #D6756B",
"A 	c #E8B2AD",
"B 	c #CC9994",
"C 	c #C65449",
"D 	c #FEFEFE",
"E 	c #F4DAD8",
"F 	c #E19992",
"G 	c #CF5D51",
"H 	c #E0958E",
"I 	c #C78A83",
"J 	c #FDF9F8",
"K 	c #E3A9A3",
"L 	c #CE5A4E",
"M 	c #DB877F",
"N 	c #FCF8F6",
"O 	c #C98B85",
"P 	c #CB564B",
"Q 	c #F7F1F1",
"R 	c #D29D97",
"S 	c #CA574B",
"T 	c #DC887F",
"U 	c #FCF8F8",
"V 	c #D19D98",
"W 	c #E0CAC7",
"X 	c #C5857E",
"Y 	c #BA5146",
"Z 	c #E09890",
"` 	c #FDFCFB",
" .	c #DEBCB8",
"..	c #C7574C",
"+.	c #F3EAE9",
"@.	c #CEA29D",
"#.	c #BB6158",
"$.	c #C65448",
"%.	c #F0E2E1",
"&.	c #CA6C63",
"*.	c #E6ADA7",
"=.	c #DCC1BE",
"-.	c #C37D76",
";.	c #BC5146",
">.	c #D2695E",
",.	c #F3DBD8",
"'.	c #DCA39D",
").	c #CB645A",
"!.	c #C4766E",
"~.	c #BA5A50",
"{.	c #E29D96",
"].	c #FDFBFA",
"^.	c #F1E2E0",
"/.	c #D58077",
"(.	c #D7796F",
"_.	c #F3DAD7",
":.	c #FCFCFC",
"<.	c #EDCBC7",
"[.	c #D5756B",
"}.	c #EDC4C0",
"|.	c #EFCCC8",
"1.	c #DA8279",
"2.	c #D87B72",
"3.	c #EDC5C1",
"4.	c #F6E4E2",
"5.	c #E5A7A1",
"6.	c #D57267",
"7.	c #D46E63",
"8.	c #E3A29B",
"9.	c #F4DEDB",
"0.	c #F7E5E3",
"a.	c #EDC2BE",
"b.	c #E4A6A0",
"c.	c #DF958E",
"d.	c #DF958D",
"e.	c #E4A49D",
"f.	c #ECBFBB",
"g.	c #F5E1DF",
"h.	c #FFFCFC",
"i.	c #FDFBFB",
"j.	c #FFFFFD",
"                                                ",
"                  . + @ @ + #                   ",
"            . $ % & * = - ; > , ' .             ",
"          . ) ! ~ { ] ^ / / ( _ : < .           ",
"        . [ } | / 1 1 1 1 1 1 1 / 2 3 #         ",
"      . 4 5 6 1 1 1 1 1 1 1 1 1 1 1 7 8 9       ",
"      0 a 6 1 1 1 1 1 1 1 1 1 1 1 1 1 b c .     ",
"    d e f 1 1 1 1 g h i 1 1 1 1 1 1 1 1 j k     ",
"    l 5 / 1 1 1 m n o p q r 1 1 1 1 1 1 s t     ",
"  . u v 1 1 1 1 m w . . x y z 1 1 1 1 1 1 A .   ",
"  # B C 1 1 1 1 m w . . . D E F G 1 1 1 1 H $   ",
"  + I ] 1 1 1 1 m w . . . . . J K L 1 1 1 M N   ",
"  $ O P 1 1 1 1 m w . . . . . Q R S 1 1 1 T U   ",
"  9 V ] 1 1 1 1 m w . . . D W X Y / 1 1 1 Z `   ",
"  .  ...1 1 1 1 m w . . +.@.#.$.1 1 1 1 m y .   ",
"    %.&.1 1 1 1 m *.@ =.-.;./ 1 1 1 1 1 >.,.    ",
"    d '.^ 1 1 1 1 ).!.~.6 1 1 1 1 1 1 1 {.].    ",
"      ^./.1 1 1 1 1 ^ / 1 1 1 1 1 1 1 (._.:.    ",
"      9 <.[.1 1 1 1 1 1 1 1 1 1 1 1 g }..       ",
"        . |.1.1 1 1 1 1 1 1 1 1 1 2.3..         ",
"          . 4.5.6.r 1 1 1 1 L 7.8.9..           ",
"              9 0.a.b.c.d.e.f.g.h.              ",
"                  . 9 i.i.j.9                   ",
"                                                "};
