/* XPM */
static const char * save_xpm[] = {
"24 24 315 2",
"  	c None",
". 	c #5F5E5E",
"+ 	c #5B5A5A",
"@ 	c #858688",
"# 	c #CCD2D8",
"$ 	c #E8EEF7",
"% 	c #E4EAF2",
"& 	c #E4EAF1",
"* 	c #E5EBF2",
"= 	c #E6ECF2",
"- 	c #E7EDF3",
"; 	c #E9EEF3",
"> 	c #EBEEF4",
", 	c #ECEFF4",
"' 	c #F1F5F9",
") 	c #D3D7DA",
"! 	c #868788",
"~ 	c #676566",
"{ 	c #6E6C6D",
"] 	c #575657",
"^ 	c #595758",
"/ 	c #828284",
"( 	c #CFD5DB",
"_ 	c #E9F1FA",
": 	c #E2EAF2",
"< 	c #E2EBF2",
"[ 	c #E3EAF2",
"} 	c #E4EBF3",
"| 	c #E6ECF3",
"1 	c #E6EDF4",
"2 	c #E8EEF4",
"3 	c #F0F6FB",
"4 	c #D4D9DD",
"5 	c #838385",
"6 	c #636162",
"7 	c #656465",
"8 	c #5F5C5D",
"9 	c #5E5C5D",
"0 	c #818182",
"a 	c #D5D8DC",
"b 	c #F8FBFF",
"c 	c #F4F7FA",
"d 	c #F5F7FA",
"e 	c #F5F8FA",
"f 	c #F6F8FB",
"g 	c #F6F9FA",
"h 	c #FAFDFF",
"i 	c #D6D9DC",
"j 	c #818183",
"k 	c #615F60",
"l 	c #646364",
"m 	c #605E5F",
"n 	c #808082",
"o 	c #F5F8F9",
"p 	c #F5F7F9",
"q 	c #F3F7FA",
"r 	c #F2F5F9",
"s 	c #F1F5F8",
"t 	c #F4F9FD",
"u 	c #D1D6DA",
"v 	c #7F7F81",
"w 	c #5F5D5E",
"x 	c #626062",
"y 	c #5D5B5C",
"z 	c #7E7D80",
"A 	c #CFD4D9",
"B 	c #EDF3F9",
"C 	c #E5ECF2",
"D 	c #E4EBF1",
"E 	c #E3EBF1",
"F 	c #E2E9F0",
"G 	c #E1E9F0",
"H 	c #E0E8EF",
"I 	c #E6EEF6",
"J 	c #CBD1D7",
"K 	c #7D7D80",
"L 	c #5F5D5F",
"M 	c #5B595A",
"N 	c #7B7B7E",
"O 	c #CCD2D7",
"P 	c #EEF4FA",
"Q 	c #EAEFF4",
"R 	c #EAEFF5",
"S 	c #E9EEF5",
"T 	c #E8EDF4",
"U 	c #E7EFF7",
"V 	c #C8CFD6",
"W 	c #797A7D",
"X 	c #5C5A5C",
"Y 	c #78797B",
"Z 	c #C6CED4",
"` 	c #E4EDF5",
" .	c #DEE7EF",
"..	c #DEE6EF",
"+.	c #DDE6EF",
"@.	c #DDE6EE",
"#.	c #DCE6EE",
"$.	c #DBE5ED",
"%.	c #DBE4ED",
"&.	c #D9E3EC",
"*.	c #DEE9F2",
"=.	c #C2CBD3",
"-.	c #77787A",
";.	c #595859",
">.	c #575556",
",.	c #575555",
"'.	c #757679",
").	c #C0C8D1",
"!.	c #D7E3EE",
"~.	c #D0DCE7",
"{.	c #CFDCE7",
"].	c #CEDBE6",
"^.	c #CDDBE6",
"/.	c #CDDAE6",
"(.	c #CCD9E5",
"_.	c #D2E0EC",
":.	c #BCC6CF",
"<.	c #747678",
"[.	c #565455",
"}.	c #585556",
"|.	c #545152",
"1.	c #545253",
"2.	c #747578",
"3.	c #C1CBD4",
"4.	c #DCE9F4",
"5.	c #D5E2EE",
"6.	c #D5E3EE",
"7.	c #D4E2EE",
"8.	c #D4E0EE",
"9.	c #D3E0ED",
"0.	c #D2DFED",
"a.	c #D1DFEB",
"b.	c #D7E5F3",
"c.	c #BDC8D2",
"d.	c #727477",
"e.	c #535152",
"f.	c #565354",
"g.	c #524F50",
"h.	c #525051",
"i.	c #616264",
"j.	c #8A9096",
"k.	c #9CA3AC",
"l.	c #9CA2AA",
"m.	c #9DA4AD",
"n.	c #9FA5AE",
"o.	c #9FA7AE",
"p.	c #A0A8AF",
"q.	c #9EA7AE",
"r.	c #9DA5AD",
"s.	c #99A1A9",
"t.	c #99A2AA",
"u.	c #898F96",
"v.	c #616164",
"w.	c #504D4E",
"x.	c #504E4F",
"y.	c #4F4C4D",
"z.	c #4D4A4A",
"A.	c #4E4B4B",
"B.	c #4F4D4E",
"C.	c #524E4F",
"D.	c #535051",
"E.	c #534F50",
"F.	c #514F50",
"G.	c #514E4F",
"H.	c #4E4C4C",
"I.	c #4D4A4B",
"J.	c #4E4C4D",
"K.	c #4E4B4C",
"L.	c #4F4B4C",
"M.	c #4C4A4B",
"N.	c #4C494A",
"O.	c #5B5859",
"P.	c #636061",
"Q.	c #656263",
"R.	c #666364",
"S.	c #666565",
"T.	c #686667",
"U.	c #676666",
"V.	c #676466",
"W.	c #646263",
"X.	c #4A4749",
"Y.	c #484647",
"Z.	c #4A4748",
"`.	c #494546",
" +	c #494647",
".+	c #464344",
"++	c #959494",
"@+	c #B2B1B2",
"#+	c #B1B0B0",
"$+	c #B1B0B1",
"%+	c #B4B3B3",
"&+	c #B5B5B4",
"*+	c #B6B5B6",
"=+	c #B5B5B5",
"-+	c #B6B5B5",
";+	c #AFAEAE",
">+	c #787777",
",+	c #3F3D3D",
"'+	c #3A3738",
")+	c #413E3F",
"!+	c #484546",
"~+	c #454243",
"{+	c #423F40",
"]+	c #AAAAAA",
"^+	c #AEADAE",
"/+	c #919191",
"(+	c #898888",
"_+	c #C9C9C9",
":+	c #CBCBCB",
"<+	c #CACACA",
"[+	c #C3C3C3",
"}+	c #858484",
"|+	c #413F3F",
"1+	c #3B3838",
"2+	c #3E3B3C",
"3+	c #434041",
"4+	c #454344",
"5+	c #413D3E",
"6+	c #3E3A3B",
"7+	c #5A5858",
"8+	c #A3A1A1",
"9+	c #7F7D7E",
"0+	c #423E40",
"a+	c #2E2B2C",
"b+	c #848383",
"c+	c #C0C0C0",
"d+	c #C1C1C1",
"e+	c #BEBEBE",
"f+	c #BBBBBB",
"g+	c #B3B2B3",
"h+	c #7C7B7B",
"i+	c #413F40",
"j+	c #3B3839",
"k+	c #3C393A",
"l+	c #403D3E",
"m+	c #393536",
"n+	c #575454",
"o+	c #A2A0A0",
"p+	c #7A7878",
"q+	c #383536",
"r+	c #232021",
"s+	c #7D7D7D",
"t+	c #B8B8B8",
"u+	c #B7B7B7",
"v+	c #B4B4B4",
"w+	c #B0B0B0",
"x+	c #A8A8A8",
"y+	c #747273",
"z+	c #3C3A3B",
"A+	c #373436",
"B+	c #403C3D",
"C+	c #373435",
"D+	c #383435",
"E+	c #353132",
"F+	c #9D9C9C",
"G+	c #6F6E6E",
"H+	c #2A2728",
"I+	c #171415",
"J+	c #737373",
"K+	c #AEAEAE",
"L+	c #ACACAC",
"M+	c #A4A4A4",
"N+	c #9C9C9C",
"O+	c #6A696A",
"P+	c #373434",
"Q+	c #323030",
"R+	c #343132",
"S+	c #3C3839",
"T+	c #343031",
"U+	c #312D2E",
"V+	c #969696",
"W+	c #454545",
"X+	c #3A3839",
"Y+	c #7C7C7C",
"Z+	c #A0A0A0",
"`+	c #999999",
" @	c #909090",
".@	c #605F5F",
"+@	c #2F2C2D",
"@@	c #2D292A",
"#@	c #302C2D",
"$@	c #343032",
"%@	c #353232",
"&@	c #282425",
"*@	c #2F2B2C",
"=@	c #484545",
"-@	c #8D8C8C",
";@	c #9E9E9E",
">@	c #8F8F8F",
",@	c #898989",
"'@	c #929292",
")@	c #959595",
"!@	c #8E8E8E",
"~@	c #8D8D8D",
"{@	c #878787",
"]@	c #5A5959",
"^@	c #2A2627",
"/@	c #2C292A",
"(@	c #312D2D",
"_@	c #191718",
":@	c #201D1E",
"<@	c #3C3939",
"[@	c #747373",
"}@	c #888888",
"|@	c #868686",
"1@	c #858585",
"2@	c #808080",
"3@	c #7F7F7F",
"4@	c #7E7E7E",
"5@	c #757575",
"6@	c #4D4C4C",
"7@	c #1C181A",
"8@	c #1E1B1C",
"9@	c #211E1E",
"0@	c #222020",
"                                                ",
"                                                ",
"    . + @ # $ % % & * = - - ; > , ' ) ! ~ {     ",
"    ] ^ / ( _ : : : < [ } } | 1 2 3 4 5 6 7     ",
"    8 9 0 a b c c c c d e e f f g h i j k l     ",
"    k m n a h e e o p c c c q r s t u v w x     ",
"    y y z A B = C C * D D E F G H I J K y L     ",
"    M M N O P Q R S S 2 T - = = D U V W M X     ",
"    ^ ^ Y Z `  . . ...+.@.#.$.%.&.*.=.-.^ ;.    ",
"    >.,.'.).!.~.{.{.{.{.].].^./.(._.:.<.[.}.    ",
"    |.1.2.3.4.5.6.6.5.7.8.9.9.0.a.b.c.d.e.f.    ",
"    g.h.i.j.k.l.m.n.o.p.p.q.r.k.s.t.u.v.h.|.    ",
"    w.x.y.z.A.B.x.C.g.D.D.E.F.G.w.H.I.J.x.g.    ",
"    K.y.y.y.K.K.K.K.K.K.K.K.K.L.y.y.y.y.y.w.    ",
"    M.I.N.K.O.P.Q.R.S.~ T.U.V.W.>.X.Y.Z.N.I.    ",
"    `. +.+}.++@+#+$+%+&+*+=+-+;+>+,+'+)+!+Z.    ",
"    ~+~+{+9 ]+^+/+(+;+_+:+<+<+[+}+|+1+2+3+4+    ",
"    5+)+6+7+8+9+0+a+b+c+d+e+f+g+h+i+j+k+l+{+    ",
"    j+k+m+n+o+p+q+r+s+t+u+v+w+x+y+z+A+q+2+B+    ",
"    C+D+E+D.F+G+H+I+J+K+L+x+M+N+O+P+Q+R+'+S+    ",
"    T+T+U+y.V+h+W+X+Y+M+Z+N+`+ @.@+@@@#@$@%@    ",
"    &@@@*@=@-@;@>@,@'@)@/+!@~@{@]@^@&@/@#@(@    ",
"      _@:@<@[@}@}@|@1@2@3@4@s+5@6@:@7@8@9@0@    ",
"                                                "};
