/* XPM */
static const char * saveas_xpm[] = {
"24 24 382 2",
"  	c None",
". 	c #636263",
"+ 	c #585757",
"@ 	c #646263",
"# 	c #ABAFB3",
"$ 	c #E7EDF5",
"% 	c #E3E9F1",
"& 	c #E4EAF1",
"* 	c #E5EAF2",
"= 	c #E6EBF3",
"- 	c #E4C4C5",
"; 	c #DB8689",
"> 	c #DFA4A7",
", 	c #E9DCE0",
"' 	c #EBF3F8",
") 	c #EAEEF2",
"! 	c #B1B4B7",
"~ 	c #6B696A",
"{ 	c #686667",
"] 	c #716F70",
"^ 	c #5A5859",
"/ 	c #555454",
"( 	c #5F5D5E",
"_ 	c #AEB1B5",
": 	c #EBF2F9",
"< 	c #E1EAF2",
"[ 	c #E1E9F2",
"} 	c #E2EAF2",
"| 	c #E3EBF4",
"1 	c #E0D9B9",
"2 	c #E2A453",
"3 	c #D94C38",
"4 	c #D33232",
"5 	c #D2696B",
"6 	c #E1D1D7",
"7 	c #ECF4F8",
"8 	c #B3B6B9",
"9 	c #676566",
"0 	c #696768",
"a 	c #615F60",
"b 	c #605E5F",
"c 	c #AEB1B6",
"d 	c #F6FAFE",
"e 	c #F7F9FC",
"f 	c #F6F8FB",
"g 	c #F7FAFF",
"h 	c #EFE9D1",
"i 	c #ECC74E",
"j 	c #BD961A",
"k 	c #76371F",
"l 	c #AC0A0E",
"m 	c #BB0C0E",
"n 	c #D67C7D",
"o 	c #F5FAFC",
"p 	c #B2B5B8",
"q 	c #646364",
"r 	c #626061",
"s 	c #676466",
"t 	c #615F5F",
"u 	c #5E5C5C",
"v 	c #ADB1B5",
"w 	c #F9FDFF",
"x 	c #FAFBFC",
"y 	c #F9FBFC",
"z 	c #FAFCFE",
"A 	c #F4F1E3",
"B 	c #F0CD5F",
"C 	c #D9AC1D",
"D 	c #53471F",
"E 	c #060B11",
"F 	c #602203",
"G 	c #A61800",
"H 	c #C06265",
"I 	c #EEF2F6",
"J 	c #AFB3B7",
"K 	c #5E5C5D",
"L 	c #5B595A",
"M 	c #E8EFF6",
"N 	c #DDE5EE",
"O 	c #DDE5F0",
"P 	c #DAE0E3",
"Q 	c #E4C96C",
"R 	c #E8B820",
"S 	c #645526",
"T 	c #0B0E16",
"U 	c #302505",
"V 	c #AE8601",
"W 	c #CA963D",
"X 	c #C6BCBE",
"Y 	c #DFE9F1",
"Z 	c #ACB0B4",
"` 	c #5D5B5C",
" .	c #5C5A5B",
"..	c #A8ADB1",
"+.	c #EDF3F8",
"@.	c #EDF2F7",
"#.	c #ECF0F2",
"$.	c #EDD586",
"%.	c #EABD2E",
"&.	c #776733",
"*.	c #12151C",
"=.	c #292108",
"-.	c #987301",
";.	c #D7AF32",
">.	c #D4CEAE",
",.	c #DCE4EC",
"'.	c #E2E9F0",
").	c #A8ADB2",
"!.	c #595758",
"~.	c #565354",
"{.	c #A5A9AF",
"].	c #E3ECF5",
"^.	c #E0E7EC",
"/.	c #EAD89A",
"(.	c #EAC345",
"_.	c #897945",
":.	c #222225",
"<.	c #211B0B",
"[.	c #866500",
"}.	c #D3A922",
"|.	c #C6BD93",
"1.	c #C8D0DA",
"2.	c #D7E0E8",
"3.	c #D9E4EC",
"4.	c #A5AAAF",
"5.	c #5C5B5C",
"6.	c #575556",
"7.	c #535152",
"8.	c #A2A7AC",
"9.	c #D8E3EC",
"0.	c #DAD2A6",
"a.	c #ECCC65",
"b.	c #9C8C57",
"c.	c #302F2D",
"d.	c #171610",
"e.	c #765901",
"f.	c #D6A816",
"g.	c #BDB17C",
"h.	c #B0BCC7",
"i.	c #C1CEDB",
"j.	c #CBD9E5",
"k.	c #CFDBE7",
"l.	c #A1A7AD",
"m.	c #585758",
"n.	c #565455",
"o.	c #555354",
"p.	c #514F50",
"q.	c #A0A6AC",
"r.	c #DCD9BC",
"s.	c #EED47C",
"t.	c #B1A069",
"u.	c #3D3B34",
"v.	c #0E1015",
"w.	c #685005",
"x.	c #DDAB0F",
"y.	c #C1B06F",
"z.	c #ABB6BF",
"A.	c #BECAD6",
"B.	c #CEDBE7",
"C.	c #D0DEEB",
"D.	c #A0A7AE",
"E.	c #545253",
"F.	c #595657",
"G.	c #525051",
"H.	c #4F4D4F",
"I.	c #928C74",
"J.	c #EED98F",
"K.	c #C8B77E",
"L.	c #47443B",
"M.	c #10121A",
"N.	c #5C4807",
"O.	c #DFAB08",
"P.	c #A98F3B",
"Q.	c #7A7E81",
"R.	c #868D95",
"S.	c #969EA5",
"T.	c #9BA3AB",
"U.	c #98A1A9",
"V.	c #959EA6",
"W.	c #787B80",
"X.	c #535151",
"Y.	c #504E4F",
"Z.	c #635C4B",
"`.	c #C5B06E",
" +	c #E0CD8F",
".+	c #545145",
"++	c #15161B",
"@+	c #51400C",
"#+	c #D4A206",
"$+	c #A3821C",
"%+	c #474239",
"&+	c #413F42",
"*+	c #4C4A4B",
"=+	c #514E4F",
"-+	c #4F4C4D",
";+	c #4D4B4C",
">+	c #4E4B4C",
",+	c #4B494C",
"'+	c #59534C",
")+	c #BFAC72",
"!+	c #EAD798",
"~+	c #625E50",
"{+	c #18191D",
"]+	c #4A3C11",
"^+	c #C19307",
"/+	c #AF8A16",
"(+	c #48412F",
"_+	c #373539",
":+	c #444142",
"<+	c #4D4A4B",
"[+	c #524D4F",
"}+	c #555047",
"|+	c #B4A26B",
"1+	c #E8D599",
"2+	c #726C5A",
"3+	c #1E1E21",
"4+	c #413615",
"5+	c #B28909",
"6+	c #C69D1E",
"7+	c #63593D",
"8+	c #48474B",
"9+	c #696767",
"0+	c #6B6869",
"a+	c #6A6869",
"b+	c #646162",
"c+	c #4B4849",
"d+	c #484646",
"e+	c #484546",
"f+	c #4C494A",
"g+	c #4F4B4C",
"h+	c #B7A261",
"i+	c #E3D094",
"j+	c #7B745C",
"k+	c #262626",
"l+	c #342E19",
"m+	c #A5800B",
"n+	c #D8AC21",
"o+	c #92865F",
"p+	c #7A7A7B",
"q+	c #929292",
"r+	c #B1B0B0",
"s+	c #B8B8B8",
"t+	c #B8B7B7",
"u+	c #A9A9A9",
"v+	c #464445",
"w+	c #3D3B3B",
"x+	c #3B393A",
"y+	c #454243",
"z+	c #494647",
"A+	c #E8CE7C",
"B+	c #887D57",
"C+	c #2D2C29",
"D+	c #27241D",
"E+	c #98770D",
"F+	c #DCAB10",
"G+	c #736333",
"H+	c #4B4B4B",
"I+	c #605F60",
"J+	c #B1B1B1",
"K+	c #C8C8C8",
"L+	c #C7C7C7",
"M+	c #C6C6C6",
"N+	c #B5B5B5",
"O+	c #4B4949",
"P+	c #403D3E",
"Q+	c #3C393A",
"R+	c #413E3F",
"S+	c #464444",
"T+	c #DEC580",
"U+	c #988548",
"V+	c #312E25",
"W+	c #1C1D21",
"X+	c #876B11",
"Y+	c #EFBA12",
"Z+	c #8A7739",
"`+	c #2A2A2D",
" @	c #242222",
".@	c #363535",
"+@	c #B4B3B4",
"@@	c #C3C4C3",
"#@	c #BFBFBF",
"$@	c #BCBCBC",
"%@	c #BABABA",
"&@	c #494747",
"*@	c #3F3D3D",
"=@	c #3B3839",
"-@	c #3E3B3C",
";@	c #423E40",
">@	c #D5C499",
",@	c #90845D",
"'@	c #2B2A28",
")@	c #7D6314",
"!@	c #F0B90D",
"~@	c #977E2D",
"{@	c #575656",
"]@	c #2D2B2C",
"^@	c #282526",
"/@	c #383636",
"(@	c #AEAEAE",
"_@	c #B4B4B4",
":@	c #9E9E9E",
"<@	c #444242",
"[@	c #373435",
"}@	c #3B3738",
"|@	c #413D3E",
"1@	c #403C3D",
"2@	c #C8B37F",
"3@	c #CCB677",
"4@	c #BDA34E",
"5@	c #A18838",
"6@	c #DBAB15",
"7@	c #957616",
"8@	c #44423C",
"9@	c #676769",
"0@	c #353233",
"a@	c #272425",
"b@	c #313030",
"c@	c #A4A4A4",
"d@	c #AFAFAF",
"e@	c #ABABAB",
"f@	c #A7A7A7",
"g@	c #A3A3A3",
"h@	c #939292",
"i@	c #333031",
"j@	c #363435",
"k@	c #3C3839",
"l@	c #93855A",
"m@	c #B9A256",
"n@	c #B69C48",
"o@	c #9D884E",
"p@	c #705F31",
"q@	c #3B3426",
"r@	c #5B5A5D",
"s@	c #999999",
"t@	c #514F4F",
"u@	c #373536",
"v@	c #434142",
"w@	c #9D9D9D",
"x@	c #9A9A9A",
"y@	c #969696",
"z@	c #878787",
"A@	c #363334",
"B@	c #2E2B2B",
"C@	c #2E2A2B",
"D@	c #322E2F",
"E@	c #363233",
"F@	c #3F3B31",
"G@	c #7F6F3D",
"H@	c #857342",
"I@	c #3F3830",
"J@	c #2B282C",
"K@	c #302D2F",
"L@	c #646261",
"M@	c #939393",
"N@	c #8A8989",
"O@	c #979797",
"P@	c #949494",
"Q@	c #909090",
"R@	c #8D8D8D",
"S@	c #7F7E7E",
"T@	c #302C2E",
"U@	c #292526",
"V@	c #2A2627",
"W@	c #302C2D",
"X@	c #312C2D",
"Y@	c #121011",
"Z@	c #1C1B1B",
"`@	c #211E20",
" #	c #4A4848",
".#	c #7B7B7B",
"+#	c #7C7C7C",
"@#	c #7E7E7E",
"##	c #7A7A7A",
"$#	c #797979",
"%#	c #787878",
"&#	c #6B6B6B",
"*#	c #272525",
"=#	c #1D1A1B",
"-#	c #1E1B1C",
";#	c #201E1E",
">#	c #221F1F",
",#	c #242121",
"                                                ",
"                                                ",
"      . + @ # $ % % % & * = - ; > , ' ) ! ~ { ] ",
"      ^ / ( _ : < [ [ } | 1 2 3 4 5 6 7 8 9 @ 0 ",
"      a b ( c d e f f g h i j k l m n o p q r s ",
"      t a u v w x y z A B C D E F G H I J r b @ ",
"      K K L # M N O P Q R S T U V W X Y Z b ` r ",
"       . .+ ..+.@.#.$.%.&.*.=.-.;.>.,.'.).K L ( ",
"      !.^ ~.{.].^./.(._.:.<.[.}.|.1.2.3.4.L !.5.",
"      6.6.7.8.9.0.a.b.c.d.e.f.g.h.i.j.k.l.m.n.L ",
"      o.o.p.q.r.s.t.u.v.w.x.y.z.A.B.C.C.D.n.E.F.",
"      G.7.H.I.J.K.L.M.N.O.P.Q.R.S.T.U.V.W.X.G.o.",
"      Y.H.Z.`. +.+++@+#+$+%+&+*+p.=+-+;+>+Y.Y.7.",
"      ,+'+)+!+~+{+]+^+/+(+_+:+*+<+>+-+-+-+-+>+[+",
"      }+|+1+2+3+4+5+6+7+8+ .9+0+a+b+c+d+e+c+f+g+",
"      h+i+j+k+l+m+n+o+p+q+r+s+t+s+u+v+w+x+y+z+c+",
"      A+B+C+D+E+F+G+H+I+J+K+L+M+M+N+O+P+Q+R+y+S+",
"    T+U+V+W+X+Y+Z+`+ @.@+@@@#@$@%@u+&@*@=@-@P+;@",
"    >@,@'@)@!@~@{@]@^@/@(@%@_@J+(@:@<@=@[@}@|@1@",
"  2@3@4@5@6@7@8@9@0@a@b@c@d@e@f@g@h@w+0@i@j@k@=@",
"  l@m@n@o@p@q@r@s@t@u@v@w@g@:@x@y@z@A@B@C@D@0@E@",
"  F@G@H@I@J@K@L@f@M@N@N@O@P@Q@R@R@S@T@U@V@C@W@X@",
"        Y@Z@`@ #.#+#@#@###$#$#%#%#&#*#=#-#;#>#,#",
"                                                "};
